<?xml version="1.0" encoding="UTF-8" standalone="no"?>
<!DOCTYPE svg PUBLIC "-//W3C//DTD SVG 1.1//EN"
 "http://www.w3.org/Graphics/SVG/1.1/DTD/svg11.dtd">
<!-- Generated by graphviz version 2.40.1 (20161225.0304)
 -->
<!-- Title: dependencies Pages: 1 -->
<svg width="658pt" height="284pt"
 viewBox="0.00 0.00 658.00 284.00" xmlns="http://www.w3.org/2000/svg" xmlns:xlink="http://www.w3.org/1999/xlink">
<g id="graph0" class="graph" transform="scale(1 1) rotate(0) translate(4 280)">
<title>dependencies</title>
<polygon fill="#ffffff" stroke="transparent" points="-4,4 -4,-280 654,-280 654,4 -4,4"/>
<text text-anchor="start" x="304.0091" y="-42.4" font-family="sans-serif" font-weight="bold" font-size="14.00" fill="#000000">Legend</text>
<polygon fill="#ffffb3" stroke="transparent" points="91,-10 91,-30 111,-30 111,-10 91,-10"/>
<text text-anchor="start" x="114.629" y="-15.4" font-family="sans-serif" font-size="14.00" fill="#000000"> &#160;Declarations</text>
<polygon fill="#8dd3c7" stroke="transparent" points="204,-10 204,-30 224,-30 224,-10 204,-10"/>
<text text-anchor="start" x="227.7251" y="-15.4" font-family="sans-serif" font-size="14.00" fill="#000000"> &#160;Module</text>
<polygon fill="#80b1d3" stroke="transparent" points="290,-10 290,-30 310,-30 310,-10 290,-10"/>
<text text-anchor="start" x="313.7812" y="-15.4" font-family="sans-serif" font-size="14.00" fill="#000000"> &#160;Bootstrap</text>
<polygon fill="#fdb462" stroke="transparent" points="387,-10 387,-30 407,-30 407,-10 387,-10"/>
<text text-anchor="start" x="410.6732" y="-15.4" font-family="sans-serif" font-size="14.00" fill="#000000"> &#160;Providers</text>
<polygon fill="#fb8072" stroke="transparent" points="483,-10 483,-30 503,-30 503,-10 483,-10"/>
<text text-anchor="start" x="506.7258" y="-15.4" font-family="sans-serif" font-size="14.00" fill="#000000"> &#160;Exports</text>
<g id="clust1" class="cluster">
<title>cluster_LayoutModule</title>
<polygon fill="none" stroke="#000000" stroke-dasharray="1,5" points="8,-70 8,-268 642,-268 642,-70 8,-70"/>
</g>
<g id="clust2" class="cluster">
<title>cluster_LayoutModule_declarations</title>
<polygon fill="none" stroke="#000000" points="138,-78 138,-130 634,-130 634,-78 138,-78"/>
</g>
<g id="clust6" class="cluster">
<title>cluster_LayoutModule_imports</title>
<polygon fill="none" stroke="#000000" points="16,-78 16,-130 130,-130 130,-78 16,-78"/>
</g>
<g id="clust7" class="cluster">
<title>cluster_LayoutModule_exports</title>
<polygon fill="none" stroke="#000000" points="71,-208 71,-260 578,-260 578,-208 71,-208"/>
</g>
<!-- LayoutOneComponent -->
<g id="node1" class="node">
<title>LayoutOneComponent</title>
<polygon fill="#ffffb3" stroke="#000000" points="626.3117,-122 481.6883,-122 481.6883,-86 626.3117,-86 626.3117,-122"/>
<text text-anchor="middle" x="554" y="-99.8" font-family="Times,serif" font-size="14.00" fill="#000000">LayoutOneComponent</text>
</g>
<!-- LayoutModule -->
<g id="node4" class="node">
<title>LayoutModule</title>
<polygon fill="#8dd3c7" stroke="#000000" points="375.7078,-187 372.7078,-191 351.7078,-191 348.7078,-187 276.2922,-187 276.2922,-151 375.7078,-151 375.7078,-187"/>
<text text-anchor="middle" x="326" y="-164.8" font-family="Times,serif" font-size="14.00" fill="#000000">LayoutModule</text>
</g>
<!-- LayoutOneComponent&#45;&gt;LayoutModule -->
<g id="edge1" class="edge">
<title>LayoutOneComponent&#45;&gt;LayoutModule</title>
<path fill="none" stroke="#000000" d="M525.875,-122.0225C525.875,-139.3734 525.875,-163 525.875,-163 525.875,-163 385.6641,-163 385.6641,-163"/>
<polygon fill="#000000" stroke="#000000" points="385.6641,-159.5001 375.6641,-163 385.6641,-166.5001 385.6641,-159.5001"/>
</g>
<!-- LayoutThreeComponent -->
<g id="node2" class="node">
<title>LayoutThreeComponent</title>
<polygon fill="#ffffb3" stroke="#000000" points="463.633,-122 310.367,-122 310.367,-86 463.633,-86 463.633,-122"/>
<text text-anchor="middle" x="387" y="-99.8" font-family="Times,serif" font-size="14.00" fill="#000000">LayoutThreeComponent</text>
</g>
<!-- LayoutThreeComponent&#45;&gt;LayoutModule -->
<g id="edge2" class="edge">
<title>LayoutThreeComponent&#45;&gt;LayoutModule</title>
<path fill="none" stroke="#000000" d="M342.8937,-122.1061C342.8937,-122.1061 342.8937,-140.991 342.8937,-140.991"/>
<polygon fill="#000000" stroke="#000000" points="339.3938,-140.9909 342.8937,-150.991 346.3938,-140.991 339.3938,-140.9909"/>
</g>
<!-- LayoutTwoComponent -->
<g id="node3" class="node">
<title>LayoutTwoComponent</title>
<polygon fill="#ffffb3" stroke="#000000" points="292.1498,-122 145.8502,-122 145.8502,-86 292.1498,-86 292.1498,-122"/>
<text text-anchor="middle" x="219" y="-99.8" font-family="Times,serif" font-size="14.00" fill="#000000">LayoutTwoComponent</text>
</g>
<!-- LayoutTwoComponent&#45;&gt;LayoutModule -->
<g id="edge3" class="edge">
<title>LayoutTwoComponent&#45;&gt;LayoutModule</title>
<path fill="none" stroke="#000000" d="M284.3605,-122.1061C284.3605,-122.1061 284.3605,-140.991 284.3605,-140.991"/>
<polygon fill="#000000" stroke="#000000" points="280.8605,-140.9909 284.3605,-150.991 287.8605,-140.991 280.8605,-140.9909"/>
</g>
<!-- LayoutOneComponent  -->
<g id="node6" class="node">
<title>LayoutOneComponent </title>
<polygon fill="#fb8072" stroke="#000000" points="569.8115,-252 422.1885,-252 422.1885,-216 569.8115,-216 569.8115,-252"/>
<text text-anchor="middle" x="496" y="-229.8" font-family="Times,serif" font-size="14.00" fill="#000000">LayoutOneComponent </text>
</g>
<!-- LayoutModule&#45;&gt;LayoutOneComponent  -->
<g id="edge5" class="edge">
<title>LayoutModule&#45;&gt;LayoutOneComponent </title>
<path fill="none" stroke="#000000" stroke-dasharray="5,2" d="M375.9388,-175C407.7269,-175 442.9553,-175 442.9553,-175 442.9553,-175 442.9553,-205.9775 442.9553,-205.9775"/>
<polygon fill="#000000" stroke="#000000" points="439.4554,-205.9774 442.9553,-215.9775 446.4554,-205.9775 439.4554,-205.9774"/>
</g>
<!-- LayoutThreeComponent  -->
<g id="node7" class="node">
<title>LayoutThreeComponent </title>
<polygon fill="#fb8072" stroke="#000000" points="404.6327,-252 247.3673,-252 247.3673,-216 404.6327,-216 404.6327,-252"/>
<text text-anchor="middle" x="326" y="-229.8" font-family="Times,serif" font-size="14.00" fill="#000000">LayoutThreeComponent </text>
</g>
<!-- LayoutModule&#45;&gt;LayoutThreeComponent  -->
<g id="edge6" class="edge">
<title>LayoutModule&#45;&gt;LayoutThreeComponent </title>
<path fill="none" stroke="#000000" stroke-dasharray="5,2" d="M326,-187.1061C326,-187.1061 326,-205.991 326,-205.991"/>
<polygon fill="#000000" stroke="#000000" points="322.5001,-205.9909 326,-215.991 329.5001,-205.991 322.5001,-205.9909"/>
</g>
<!-- LayoutTwoComponent  -->
<g id="node8" class="node">
<title>LayoutTwoComponent </title>
<polygon fill="#fb8072" stroke="#000000" points="229.1495,-252 78.8505,-252 78.8505,-216 229.1495,-216 229.1495,-252"/>
<text text-anchor="middle" x="154" y="-229.8" font-family="Times,serif" font-size="14.00" fill="#000000">LayoutTwoComponent </text>
</g>
<!-- LayoutModule&#45;&gt;LayoutTwoComponent  -->
<g id="edge7" class="edge">
<title>LayoutModule&#45;&gt;LayoutTwoComponent </title>
<path fill="none" stroke="#000000" stroke-dasharray="5,2" d="M276.3447,-175C236.5678,-175 187.375,-175 187.375,-175 187.375,-175 187.375,-205.9775 187.375,-205.9775"/>
<polygon fill="#000000" stroke="#000000" points="183.8751,-205.9774 187.375,-215.9775 190.8751,-205.9775 183.8751,-205.9774"/>
</g>
<!-- SharedModule -->
<g id="node5" class="node">
<title>SharedModule</title>
<polygon fill="#8dd3c7" stroke="#000000" points="122.4231,-122 119.4231,-126 98.4231,-126 95.4231,-122 23.5769,-122 23.5769,-86 122.4231,-86 122.4231,-122"/>
<text text-anchor="middle" x="73" y="-99.8" font-family="Times,serif" font-size="14.00" fill="#000000">SharedModule</text>
</g>
<!-- SharedModule&#45;&gt;LayoutModule -->
<g id="edge4" class="edge">
<title>SharedModule&#45;&gt;LayoutModule</title>
<path fill="none" stroke="#000000" d="M100.5682,-122.0225C100.5682,-139.3734 100.5682,-163 100.5682,-163 100.5682,-163 266.249,-163 266.249,-163"/>
<polygon fill="#000000" stroke="#000000" points="266.249,-166.5001 276.249,-163 266.2489,-159.5001 266.249,-166.5001"/>
</g>
</g>
</svg>
