<?xml version="1.0" encoding="UTF-8" standalone="no"?>
<!DOCTYPE svg PUBLIC "-//W3C//DTD SVG 1.1//EN"
 "http://www.w3.org/Graphics/SVG/1.1/DTD/svg11.dtd">
<!-- Generated by graphviz version 2.40.1 (20161225.0304)
 -->
<!-- Title: dependencies Pages: 1 -->
<svg width="2029pt" height="355pt"
 viewBox="0.00 0.00 2029.00 355.00" xmlns="http://www.w3.org/2000/svg" xmlns:xlink="http://www.w3.org/1999/xlink">
<g id="graph0" class="graph" transform="scale(1 1) rotate(0) translate(4 351)">
<title>dependencies</title>
<polygon fill="#ffffff" stroke="transparent" points="-4,4 -4,-351 2025,-351 2025,4 -4,4"/>
<text text-anchor="start" x="989.5091" y="-42.4" font-family="sans-serif" font-weight="bold" font-size="14.00" fill="#000000">Legend</text>
<polygon fill="#ffffb3" stroke="transparent" points="776.5,-10 776.5,-30 796.5,-30 796.5,-10 776.5,-10"/>
<text text-anchor="start" x="800.129" y="-15.4" font-family="sans-serif" font-size="14.00" fill="#000000"> &#160;Declarations</text>
<polygon fill="#8dd3c7" stroke="transparent" points="889.5,-10 889.5,-30 909.5,-30 909.5,-10 889.5,-10"/>
<text text-anchor="start" x="913.2251" y="-15.4" font-family="sans-serif" font-size="14.00" fill="#000000"> &#160;Module</text>
<polygon fill="#80b1d3" stroke="transparent" points="975.5,-10 975.5,-30 995.5,-30 995.5,-10 975.5,-10"/>
<text text-anchor="start" x="999.2812" y="-15.4" font-family="sans-serif" font-size="14.00" fill="#000000"> &#160;Bootstrap</text>
<polygon fill="#fdb462" stroke="transparent" points="1072.5,-10 1072.5,-30 1092.5,-30 1092.5,-10 1072.5,-10"/>
<text text-anchor="start" x="1096.1732" y="-15.4" font-family="sans-serif" font-size="14.00" fill="#000000"> &#160;Providers</text>
<polygon fill="#fb8072" stroke="transparent" points="1168.5,-10 1168.5,-30 1188.5,-30 1188.5,-10 1168.5,-10"/>
<text text-anchor="start" x="1192.2258" y="-15.4" font-family="sans-serif" font-size="14.00" fill="#000000"> &#160;Exports</text>
<g id="clust1" class="cluster">
<title>cluster_AppModule</title>
<polygon fill="none" stroke="#000000" stroke-dasharray="1,5" points="8,-70 8,-339 622,-339 622,-70 8,-70"/>
</g>
<g id="clust2" class="cluster">
<title>cluster_AppModule_declarations</title>
<polygon fill="none" stroke="#000000" points="68,-143 68,-195 190,-195 190,-143 68,-143"/>
</g>
<g id="clust4" class="cluster">
<title>cluster_AppModule_imports</title>
<polygon fill="none" stroke="#000000" points="198,-78 198,-195 614,-195 614,-78 198,-78"/>
</g>
<g id="clust6" class="cluster">
<title>cluster_AppModule_bootstrap</title>
<polygon fill="none" stroke="#000000" points="16,-279 16,-331 140,-331 140,-279 16,-279"/>
</g>
<g id="clust20" class="cluster">
<title>cluster_LayoutModule</title>
<polygon fill="none" stroke="#000000" stroke-dasharray="1,5" points="630,-203 630,-271 1657,-271 1657,-203 630,-203"/>
</g>
<g id="clust21" class="cluster">
<title>cluster_LayoutModule_declarations</title>
<polygon fill="none" stroke="#000000" points="1153,-211 1153,-263 1649,-263 1649,-211 1153,-211"/>
</g>
<g id="clust26" class="cluster">
<title>cluster_LayoutModule_exports</title>
<polygon fill="none" stroke="#000000" points="638,-211 638,-263 1145,-263 1145,-211 638,-211"/>
</g>
<g id="clust35" class="cluster">
<title>cluster_WelcomeModule</title>
<polygon fill="none" stroke="#000000" stroke-dasharray="1,5" points="1665,-70 1665,-271 2013,-271 2013,-70 1665,-70"/>
</g>
<g id="clust36" class="cluster">
<title>cluster_WelcomeModule_declarations</title>
<polygon fill="none" stroke="#000000" points="1855,-78 1855,-130 2005,-130 2005,-78 1855,-78"/>
</g>
<g id="clust38" class="cluster">
<title>cluster_WelcomeModule_imports</title>
<polygon fill="none" stroke="#000000" points="1673,-78 1673,-130 1847,-130 1847,-78 1673,-78"/>
</g>
<g id="clust39" class="cluster">
<title>cluster_WelcomeModule_exports</title>
<polygon fill="none" stroke="#000000" points="1767,-211 1767,-263 1921,-263 1921,-211 1767,-211"/>
</g>
<!-- AppComponent -->
<g id="node1" class="node">
<title>AppComponent</title>
<polygon fill="#ffffb3" stroke="#000000" points="181.9399,-187 76.0601,-187 76.0601,-151 181.9399,-151 181.9399,-187"/>
<text text-anchor="middle" x="129" y="-164.8" font-family="Times,serif" font-size="14.00" fill="#000000">AppComponent</text>
</g>
<!-- AppModule -->
<g id="node2" class="node">
<title>AppModule</title>
<polygon fill="#8dd3c7" stroke="#000000" points="109.6571,-255 106.6571,-259 85.6571,-259 82.6571,-255 26.3429,-255 26.3429,-219 109.6571,-219 109.6571,-255"/>
<text text-anchor="middle" x="68" y="-232.8" font-family="Times,serif" font-size="14.00" fill="#000000">AppModule</text>
</g>
<!-- AppComponent&#45;&gt;AppModule -->
<g id="edge1" class="edge">
<title>AppComponent&#45;&gt;AppModule</title>
<path fill="none" stroke="#000000" d="M93.0544,-187.2228C93.0544,-187.2228 93.0544,-208.7269 93.0544,-208.7269"/>
<polygon fill="#000000" stroke="#000000" points="89.5544,-208.7269 93.0544,-218.7269 96.5544,-208.727 89.5544,-208.7269"/>
</g>
<!-- AppComponent  -->
<g id="node7" class="node">
<title>AppComponent </title>
<polygon fill="#80b1d3" stroke="#000000" points="132.439,-323 23.561,-323 23.561,-287 132.439,-287 132.439,-323"/>
<text text-anchor="middle" x="78" y="-300.8" font-family="Times,serif" font-size="14.00" fill="#000000">AppComponent </text>
</g>
<!-- AppModule&#45;&gt;AppComponent  -->
<g id="edge6" class="edge">
<title>AppModule&#45;&gt;AppComponent </title>
<path fill="none" stroke="#000000" stroke-dasharray="1,5" d="M68,-255.2228C68,-255.2228 68,-276.7269 68,-276.7269"/>
<polygon fill="#000000" stroke="#000000" points="64.5001,-276.7269 68,-286.7269 71.5001,-276.727 64.5001,-276.7269"/>
</g>
<!-- AppRoutingModule -->
<g id="node3" class="node">
<title>AppRoutingModule</title>
<polygon fill="#8dd3c7" stroke="#000000" points="334.2744,-122 331.2744,-126 310.2744,-126 307.2744,-122 205.7256,-122 205.7256,-86 334.2744,-86 334.2744,-122"/>
<text text-anchor="middle" x="270" y="-99.8" font-family="Times,serif" font-size="14.00" fill="#000000">AppRoutingModule</text>
</g>
<!-- AppRoutingModule&#45;&gt;AppModule -->
<g id="edge2" class="edge">
<title>AppRoutingModule&#45;&gt;AppModule</title>
<path fill="none" stroke="#000000" d="M205.5439,-104C141.011,-104 51.2262,-104 51.2262,-104 51.2262,-104 51.2262,-208.7858 51.2262,-208.7858"/>
<polygon fill="#000000" stroke="#000000" points="47.7262,-208.7858 51.2262,-218.7858 54.7262,-208.7858 47.7262,-208.7858"/>
</g>
<!-- IconsProviderModule -->
<g id="node4" class="node">
<title>IconsProviderModule</title>
<polygon fill="#8dd3c7" stroke="#000000" points="490.0786,-122 487.0786,-126 466.0786,-126 463.0786,-122 351.9214,-122 351.9214,-86 490.0786,-86 490.0786,-122"/>
<text text-anchor="middle" x="421" y="-99.8" font-family="Times,serif" font-size="14.00" fill="#000000">IconsProviderModule</text>
</g>
<!-- IconsProviderModule&#45;&gt;AppModule -->
<g id="edge3" class="edge">
<title>IconsProviderModule&#45;&gt;AppModule</title>
<path fill="none" stroke="#000000" d="M421,-122.1491C421,-156.3636 421,-227 421,-227 421,-227 119.8799,-227 119.8799,-227"/>
<polygon fill="#000000" stroke="#000000" points="119.88,-223.5001 109.8799,-227 119.8799,-230.5001 119.88,-223.5001"/>
</g>
<!-- LayoutModule -->
<g id="node5" class="node">
<title>LayoutModule</title>
<polygon fill="#8dd3c7" stroke="#000000" points="605.7078,-187 602.7078,-191 581.7078,-191 578.7078,-187 506.2922,-187 506.2922,-151 605.7078,-151 605.7078,-187"/>
<text text-anchor="middle" x="556" y="-164.8" font-family="Times,serif" font-size="14.00" fill="#000000">LayoutModule</text>
</g>
<!-- LayoutModule&#45;&gt;AppModule -->
<g id="edge4" class="edge">
<title>LayoutModule&#45;&gt;AppModule</title>
<path fill="none" stroke="#000000" d="M539.4654,-187.1686C539.4654,-208.498 539.4654,-241 539.4654,-241 539.4654,-241 119.8394,-241 119.8394,-241"/>
<polygon fill="#000000" stroke="#000000" points="119.8394,-237.5001 109.8394,-241 119.8394,-244.5001 119.8394,-237.5001"/>
</g>
<!-- LayoutOneComponent  -->
<g id="node11" class="node">
<title>LayoutOneComponent </title>
<polygon fill="#fb8072" stroke="#000000" points="1136.8115,-255 989.1885,-255 989.1885,-219 1136.8115,-219 1136.8115,-255"/>
<text text-anchor="middle" x="1063" y="-232.8" font-family="Times,serif" font-size="14.00" fill="#000000">LayoutOneComponent </text>
</g>
<!-- LayoutModule&#45;&gt;LayoutOneComponent  -->
<g id="edge11" class="edge">
<title>LayoutModule&#45;&gt;LayoutOneComponent </title>
<path fill="none" stroke="#000000" stroke-dasharray="5,2" d="M606.0006,-175C733.909,-175 1063,-175 1063,-175 1063,-175 1063,-208.7333 1063,-208.7333"/>
<polygon fill="#000000" stroke="#000000" points="1059.5001,-208.7333 1063,-218.7333 1066.5001,-208.7333 1059.5001,-208.7333"/>
</g>
<!-- LayoutThreeComponent  -->
<g id="node12" class="node">
<title>LayoutThreeComponent </title>
<polygon fill="#fb8072" stroke="#000000" points="971.6327,-255 814.3673,-255 814.3673,-219 971.6327,-219 971.6327,-255"/>
<text text-anchor="middle" x="893" y="-232.8" font-family="Times,serif" font-size="14.00" fill="#000000">LayoutThreeComponent </text>
</g>
<!-- LayoutModule&#45;&gt;LayoutThreeComponent  -->
<g id="edge12" class="edge">
<title>LayoutModule&#45;&gt;LayoutThreeComponent </title>
<path fill="none" stroke="#000000" stroke-dasharray="5,2" d="M605.7255,-181C699.4677,-181 893,-181 893,-181 893,-181 893,-208.973 893,-208.973"/>
<polygon fill="#000000" stroke="#000000" points="889.5001,-208.973 893,-218.973 896.5001,-208.973 889.5001,-208.973"/>
</g>
<!-- LayoutTwoComponent  -->
<g id="node13" class="node">
<title>LayoutTwoComponent </title>
<polygon fill="#fb8072" stroke="#000000" points="796.1495,-255 645.8505,-255 645.8505,-219 796.1495,-219 796.1495,-255"/>
<text text-anchor="middle" x="721" y="-232.8" font-family="Times,serif" font-size="14.00" fill="#000000">LayoutTwoComponent </text>
</g>
<!-- LayoutModule&#45;&gt;LayoutTwoComponent  -->
<g id="edge13" class="edge">
<title>LayoutModule&#45;&gt;LayoutTwoComponent </title>
<path fill="none" stroke="#000000" stroke-dasharray="5,2" d="M572.5346,-187.3228C572.5346,-210.6602 572.5346,-248 572.5346,-248 572.5346,-248 635.8974,-248 635.8974,-248"/>
<polygon fill="#000000" stroke="#000000" points="635.8974,-251.5001 645.8974,-248 635.8974,-244.5001 635.8974,-251.5001"/>
</g>
<!-- SharedModule -->
<g id="node6" class="node">
<title>SharedModule</title>
<polygon fill="#8dd3c7" stroke="#000000" points="606.4231,-122 603.4231,-126 582.4231,-126 579.4231,-122 507.5769,-122 507.5769,-86 606.4231,-86 606.4231,-122"/>
<text text-anchor="middle" x="557" y="-99.8" font-family="Times,serif" font-size="14.00" fill="#000000">SharedModule</text>
</g>
<!-- SharedModule&#45;&gt;AppModule -->
<g id="edge5" class="edge">
<title>SharedModule&#45;&gt;AppModule</title>
<path fill="none" stroke="#000000" d="M507.6621,-104C502.0073,-104 498.2178,-104 498.2178,-104 498.2178,-104 498.2178,-234 498.2178,-234 498.2178,-234 120.0344,-234 120.0344,-234"/>
<polygon fill="#000000" stroke="#000000" points="120.0344,-230.5001 110.0344,-234 120.0344,-237.5001 120.0344,-230.5001"/>
</g>
<!-- SharedModule&#45;&gt;LayoutModule -->
<g id="edge10" class="edge">
<title>SharedModule&#45;&gt;LayoutModule</title>
<path fill="none" stroke="#000000" d="M556.6963,-122.1061C556.6963,-122.1061 556.6963,-140.991 556.6963,-140.991"/>
<polygon fill="#000000" stroke="#000000" points="553.1964,-140.9909 556.6963,-150.991 560.1964,-140.991 553.1964,-140.9909"/>
</g>
<!-- LayoutOneComponent -->
<g id="node8" class="node">
<title>LayoutOneComponent</title>
<polygon fill="#ffffb3" stroke="#000000" points="1641.3117,-255 1496.6883,-255 1496.6883,-219 1641.3117,-219 1641.3117,-255"/>
<text text-anchor="middle" x="1569" y="-232.8" font-family="Times,serif" font-size="14.00" fill="#000000">LayoutOneComponent</text>
</g>
<!-- LayoutOneComponent&#45;&gt;LayoutModule -->
<g id="edge7" class="edge">
<title>LayoutOneComponent&#45;&gt;LayoutModule</title>
<path fill="none" stroke="#000000" d="M1569,-218.8468C1569,-195.2434 1569,-157 1569,-157 1569,-157 615.8893,-157 615.8893,-157"/>
<polygon fill="#000000" stroke="#000000" points="615.8893,-153.5001 605.8893,-157 615.8893,-160.5001 615.8893,-153.5001"/>
</g>
<!-- LayoutThreeComponent -->
<g id="node9" class="node">
<title>LayoutThreeComponent</title>
<polygon fill="#ffffb3" stroke="#000000" points="1478.633,-255 1325.367,-255 1325.367,-219 1478.633,-219 1478.633,-255"/>
<text text-anchor="middle" x="1402" y="-232.8" font-family="Times,serif" font-size="14.00" fill="#000000">LayoutThreeComponent</text>
</g>
<!-- LayoutThreeComponent&#45;&gt;LayoutModule -->
<g id="edge8" class="edge">
<title>LayoutThreeComponent&#45;&gt;LayoutModule</title>
<path fill="none" stroke="#000000" d="M1402,-218.7079C1402,-196.7943 1402,-163 1402,-163 1402,-163 615.7627,-163 615.7627,-163"/>
<polygon fill="#000000" stroke="#000000" points="615.7628,-159.5001 605.7627,-163 615.7627,-166.5001 615.7628,-159.5001"/>
</g>
<!-- LayoutTwoComponent -->
<g id="node10" class="node">
<title>LayoutTwoComponent</title>
<polygon fill="#ffffb3" stroke="#000000" points="1307.1498,-255 1160.8502,-255 1160.8502,-219 1307.1498,-219 1307.1498,-255"/>
<text text-anchor="middle" x="1234" y="-232.8" font-family="Times,serif" font-size="14.00" fill="#000000">LayoutTwoComponent</text>
</g>
<!-- LayoutTwoComponent&#45;&gt;LayoutModule -->
<g id="edge9" class="edge">
<title>LayoutTwoComponent&#45;&gt;LayoutModule</title>
<path fill="none" stroke="#000000" d="M1234,-218.7772C1234,-198.6348 1234,-169 1234,-169 1234,-169 615.855,-169 615.855,-169"/>
<polygon fill="#000000" stroke="#000000" points="615.855,-165.5001 605.855,-169 615.8549,-172.5001 615.855,-165.5001"/>
</g>
<!-- WelcomeComponent -->
<g id="node14" class="node">
<title>WelcomeComponent</title>
<polygon fill="#ffffb3" stroke="#000000" points="1997.472,-122 1862.528,-122 1862.528,-86 1997.472,-86 1997.472,-122"/>
<text text-anchor="middle" x="1930" y="-99.8" font-family="Times,serif" font-size="14.00" fill="#000000">WelcomeComponent</text>
</g>
<!-- WelcomeModule -->
<g id="node15" class="node">
<title>WelcomeModule</title>
<polygon fill="#8dd3c7" stroke="#000000" points="1900.6896,-187 1897.6896,-191 1876.6896,-191 1873.6896,-187 1787.3104,-187 1787.3104,-151 1900.6896,-151 1900.6896,-187"/>
<text text-anchor="middle" x="1844" y="-164.8" font-family="Times,serif" font-size="14.00" fill="#000000">WelcomeModule</text>
</g>
<!-- WelcomeComponent&#45;&gt;WelcomeModule -->
<g id="edge14" class="edge">
<title>WelcomeComponent&#45;&gt;WelcomeModule</title>
<path fill="none" stroke="#000000" d="M1881.5544,-122.1061C1881.5544,-122.1061 1881.5544,-140.991 1881.5544,-140.991"/>
<polygon fill="#000000" stroke="#000000" points="1878.0544,-140.9909 1881.5544,-150.991 1885.0544,-140.991 1878.0544,-140.9909"/>
</g>
<!-- WelcomeComponent  -->
<g id="node17" class="node">
<title>WelcomeComponent </title>
<polygon fill="#fb8072" stroke="#000000" points="1913.4728,-255 1774.5272,-255 1774.5272,-219 1913.4728,-219 1913.4728,-255"/>
<text text-anchor="middle" x="1844" y="-232.8" font-family="Times,serif" font-size="14.00" fill="#000000">WelcomeComponent </text>
</g>
<!-- WelcomeModule&#45;&gt;WelcomeComponent  -->
<g id="edge16" class="edge">
<title>WelcomeModule&#45;&gt;WelcomeComponent </title>
<path fill="none" stroke="#000000" stroke-dasharray="5,2" d="M1844,-187.2228C1844,-187.2228 1844,-208.7269 1844,-208.7269"/>
<polygon fill="#000000" stroke="#000000" points="1840.5001,-208.7269 1844,-218.7269 1847.5001,-208.727 1840.5001,-208.7269"/>
</g>
<!-- WelcomeRoutingModule -->
<g id="node16" class="node">
<title>WelcomeRoutingModule</title>
<polygon fill="#8dd3c7" stroke="#000000" points="1839.3075,-122 1836.3075,-126 1815.3075,-126 1812.3075,-122 1680.6925,-122 1680.6925,-86 1839.3075,-86 1839.3075,-122"/>
<text text-anchor="middle" x="1760" y="-99.8" font-family="Times,serif" font-size="14.00" fill="#000000">WelcomeRoutingModule</text>
</g>
<!-- WelcomeRoutingModule&#45;&gt;WelcomeModule -->
<g id="edge15" class="edge">
<title>WelcomeRoutingModule&#45;&gt;WelcomeModule</title>
<path fill="none" stroke="#000000" d="M1813.2795,-122.1061C1813.2795,-122.1061 1813.2795,-140.991 1813.2795,-140.991"/>
<polygon fill="#000000" stroke="#000000" points="1809.7795,-140.9909 1813.2795,-150.991 1816.7795,-140.991 1809.7795,-140.9909"/>
</g>
</g>
</svg>
